<svg width="84" height="85" viewBox="0 0 84 85" fill="none" xmlns="http://www.w3.org/2000/svg">
<path d="M69.0306 34.0767C66.4167 29.9812 62.9005 26.538 58.7511 24.0107C62.1076 23.3107 62.7971 22.7437 63.1576 22.2607C63.2811 22.1041 63.3715 21.9241 63.4232 21.7316C63.475 21.5391 63.487 21.338 63.4586 21.1407C63.1541 19.0652 60.2736 18.2217 53.5116 18.2217C50.5366 18.2217 47.5931 18.4002 45.9201 18.5262L46.5676 9.09716C46.5789 8.93885 46.5584 8.77987 46.5073 8.6296C46.4562 8.47933 46.3755 8.3408 46.2701 8.22216C46.1645 8.10309 46.036 8.00642 45.8923 7.93788C45.7486 7.86935 45.5926 7.83034 45.4336 7.82316L40.9256 7.60966C40.7693 7.60117 40.6128 7.6236 40.4652 7.67568C40.3176 7.72775 40.1816 7.80845 40.0652 7.91314C39.9488 8.01784 39.8542 8.14447 39.7869 8.28578C39.7195 8.4271 39.6807 8.58032 39.6726 8.73666L39.1056 18.6732C36.6883 18.5359 34.2678 18.4647 31.8466 18.4597C23.7056 18.4597 22.0676 19.5097 21.5076 20.6542C21.4054 20.8584 21.3521 21.0837 21.3521 21.3122C21.3521 21.5406 21.4054 21.7659 21.5076 21.9702C21.7841 22.5302 22.3581 23.1567 25.5011 24.1017C20.8701 26.9498 17.0463 30.9372 14.3944 35.6833C11.7426 40.4294 10.3512 45.7759 10.3531 51.2127C10.2186 55.0453 11.0067 58.8542 12.6513 62.3187C14.2958 65.7831 16.7486 68.8018 19.8031 71.1207C26.3643 75.6561 34.223 77.9337 42.1926 77.6097C50.1677 77.9309 58.0306 75.6469 64.5926 71.1032C67.6472 68.7844 70.0999 65.7656 71.7445 62.3011C73.389 58.8367 74.1772 55.0278 74.0426 51.1952C74.0423 45.1273 72.303 39.1866 69.0306 34.0767ZM42.7316 25.2287C42.5282 25.0807 42.2831 25.001 42.0316 25.001C41.7801 25.001 41.535 25.0807 41.3316 25.2287C37.5441 27.9808 33.6102 30.5256 29.5471 32.8517C30.934 30.2678 32.4902 27.7786 34.2056 25.4002C34.3221 25.2365 34.3953 25.046 34.4183 24.8465C34.4413 24.6469 34.4134 24.4448 34.3373 24.2589C34.2611 24.073 34.1391 23.9094 33.9827 23.7834C33.8262 23.6574 33.6404 23.573 33.4426 23.5382C30.5052 22.9892 27.6059 22.2527 24.7626 21.3332C27.0963 20.9275 29.4651 20.7598 31.8326 20.8327C36.0011 20.8327 40.0856 21.1302 40.1276 21.1337C40.2855 21.1459 40.4441 21.1265 40.5944 21.0766C40.7446 21.0267 40.8834 20.9474 41.0026 20.8432C41.241 20.6302 41.3867 20.3325 41.4086 20.0137L41.9896 10.0597L44.0896 10.1612L43.4421 19.7547C43.4288 19.9271 43.4532 20.1003 43.5137 20.2623C43.5741 20.4243 43.6691 20.5711 43.7921 20.6927C43.916 20.8135 44.0647 20.9058 44.2279 20.9632C44.3911 21.0206 44.5649 21.0418 44.7371 21.0252C44.7791 21.0252 49.1786 20.6192 53.5046 20.6192C55.7485 20.5299 57.9947 20.7251 60.1896 21.2002C57.4003 21.8974 54.5687 22.413 51.7126 22.7437C51.5076 22.7677 51.3124 22.8446 51.1462 22.9669C50.9799 23.0892 50.8483 23.2526 50.7643 23.4411C50.6803 23.6296 50.6467 23.8368 50.6669 24.0422C50.6872 24.2476 50.7604 24.4442 50.8796 24.6127C52.805 27.1863 54.3666 30.0129 55.5206 33.0127C50.9954 30.8756 46.7086 28.2665 42.7316 25.2287Z" fill="#EA7727"/>
</svg>
