<svg width="18" height="17" viewBox="0 0 18 17" fill="none" xmlns="http://www.w3.org/2000/svg">
<path d="M8.56088 14.0232L4.41088 16.5232C4.22754 16.6399 4.03588 16.6899 3.83588 16.6732C3.63588 16.6566 3.46088 16.5899 3.31088 16.4732C3.16088 16.3566 3.04421 16.2109 2.96088 16.0362C2.87754 15.8616 2.86088 15.6656 2.91088 15.4482L4.01088 10.7232L0.335876 7.54824C0.169209 7.39824 0.0652091 7.22724 0.0238758 7.03524C-0.0174575 6.84324 -0.00512426 6.65591 0.0608757 6.47324C0.126876 6.29058 0.226876 6.14058 0.360876 6.02324C0.494876 5.90591 0.678209 5.83091 0.910876 5.79824L5.76088 5.37324L7.63588 0.923242C7.71921 0.723242 7.84854 0.573242 8.02388 0.473242C8.19921 0.373242 8.37821 0.323242 8.56088 0.323242C8.74354 0.323242 8.92254 0.373242 9.09788 0.473242C9.27321 0.573242 9.40254 0.723242 9.48588 0.923242L11.3609 5.37324L16.2109 5.79824C16.4442 5.83158 16.6275 5.90658 16.7609 6.02324C16.8942 6.13991 16.9942 6.28991 17.0609 6.47324C17.1275 6.65658 17.1402 6.84424 17.0989 7.03624C17.0575 7.22824 16.9532 7.39891 16.7859 7.54824L13.1109 10.7232L14.2109 15.4482C14.2609 15.6649 14.2442 15.8609 14.1609 16.0362C14.0775 16.2116 13.9609 16.3572 13.8109 16.4732C13.6609 16.5892 13.4859 16.6559 13.2859 16.6732C13.0859 16.6906 12.8942 16.6406 12.7109 16.5232L8.56088 14.0232Z" fill="#EA7727"/>
</svg>
