<svg width="84" height="85" viewBox="0 0 84 85" fill="none" xmlns="http://www.w3.org/2000/svg">
<path d="M24.4999 46V42.5C24.4999 39.7195 23.397 37.0525 21.4332 35.084C19.4694 33.1156 16.8049 32.0065 14.0244 32C14.0524 30.852 14.1189 30.019 14.2694 29.27C14.8095 26.554 16.1429 24.0592 18.101 22.1011C20.0591 20.143 22.5539 18.8096 25.2699 18.2695C26.6209 18 28.2449 18 31.4999 18H39.3749V46H24.4999ZM44.6249 46H59.4999V42.5C59.4999 39.7195 60.6028 37.0525 62.5666 35.084C64.5305 33.1156 67.1949 32.0065 69.9754 32C69.9715 31.0847 69.8895 30.1714 69.7304 29.27C69.1903 26.554 67.8569 24.0592 65.8988 22.1011C63.9407 20.143 61.4459 18.8096 58.7299 18.2695C57.3789 18 55.7549 18 52.4999 18H44.6249V46Z" fill="#EA7727"/>
<path d="M64.554 63.5H19.446C18.4965 63.4993 17.5502 63.3913 16.625 63.178V67C16.625 67.6962 16.3484 68.3639 15.8562 68.8562C15.3639 69.3484 14.6962 69.625 14 69.625C13.3038 69.625 12.6361 69.3484 12.1438 68.8562C11.6516 68.3639 11.375 67.6962 11.375 67V60.5285C10.0023 59.361 8.90004 57.9089 8.14458 56.2728C7.38912 54.6368 6.99856 52.856 7 51.054V42.5C7 40.6435 7.7375 38.863 9.05026 37.5503C10.363 36.2375 12.1435 35.5 14 35.5C15.8565 35.5 17.637 36.2375 18.9498 37.5503C20.2625 38.863 21 40.6435 21 42.5V46.7C21 47.4426 21.295 48.1548 21.8201 48.6799C22.3452 49.205 23.0574 49.5 23.8 49.5H60.2C60.9426 49.5 61.6548 49.205 62.1799 48.6799C62.705 48.1548 63 47.4426 63 46.7V42.5C63 40.6435 63.7375 38.863 65.0503 37.5503C66.363 36.2375 68.1435 35.5 70 35.5C71.8565 35.5 73.637 36.2375 74.9498 37.5503C76.2625 38.863 77 40.6435 77 42.5V51.054C77.0014 52.856 76.6109 54.6368 75.8554 56.2728C75.1 57.9089 73.9977 59.361 72.625 60.5285V67C72.625 67.6962 72.3484 68.3639 71.8562 68.8562C71.3639 69.3484 70.6962 69.625 70 69.625C69.3038 69.625 68.6361 69.3484 68.1438 68.8562C67.6516 68.3639 67.375 67.6962 67.375 67V63.178C66.4498 63.3913 65.5035 63.4993 64.554 63.5Z" fill="#EA7727"/>
</svg>
