<svg width="84" height="85" viewBox="0 0 84 85" fill="none" xmlns="http://www.w3.org/2000/svg">
<path d="M27.1249 9.25C27.1249 8.55381 26.8483 7.88613 26.356 7.39384C25.8637 6.90156 25.1961 6.625 24.4999 6.625C23.8037 6.625 23.136 6.90156 22.6437 7.39384C22.1514 7.88613 21.8749 8.55381 21.8749 9.25V14.78C16.8349 15.1825 13.5309 16.1695 11.1019 18.602C8.66937 21.031 7.68237 24.3385 7.27637 29.375H76.7234C76.3174 24.335 75.3304 21.031 72.8979 18.602C70.4689 16.1695 67.1614 15.1825 62.1249 14.7765V9.25C62.1249 8.55381 61.8483 7.88613 61.356 7.39384C60.8637 6.90156 60.1961 6.625 59.4999 6.625C58.8037 6.625 58.136 6.90156 57.6437 7.39384C57.1514 7.88613 56.8749 8.55381 56.8749 9.25V14.5455C54.5474 14.5 51.9364 14.5 48.9999 14.5H34.9999C32.0634 14.5 29.4524 14.5 27.1249 14.5455V9.25Z" fill="#EA7727"/>
<path fill-rule="evenodd" clip-rule="evenodd" d="M7 42.5C7 39.5635 7 36.9525 7.0455 34.625H76.9545C77 36.9525 77 39.5635 77 42.5V49.5C77 62.6985 77 69.2995 72.898 73.398C68.796 77.4965 62.1985 77.5 49 77.5H35C21.8015 77.5 15.2005 77.5 11.102 73.398C7.0035 69.296 7 62.6985 7 49.5V42.5ZM59.5 49.5C60.4283 49.5 61.3185 49.1313 61.9749 48.4749C62.6313 47.8185 63 46.9283 63 46C63 45.0717 62.6313 44.1815 61.9749 43.5251C61.3185 42.8687 60.4283 42.5 59.5 42.5C58.5717 42.5 57.6815 42.8687 57.0251 43.5251C56.3687 44.1815 56 45.0717 56 46C56 46.9283 56.3687 47.8185 57.0251 48.4749C57.6815 49.1313 58.5717 49.5 59.5 49.5ZM59.5 63.5C60.4283 63.5 61.3185 63.1313 61.9749 62.4749C62.6313 61.8185 63 60.9283 63 60C63 59.0717 62.6313 58.1815 61.9749 57.5251C61.3185 56.8687 60.4283 56.5 59.5 56.5C58.5717 56.5 57.6815 56.8687 57.0251 57.5251C56.3687 58.1815 56 59.0717 56 60C56 60.9283 56.3687 61.8185 57.0251 62.4749C57.6815 63.1313 58.5717 63.5 59.5 63.5ZM45.5 46C45.5 46.9283 45.1312 47.8185 44.4749 48.4749C43.8185 49.1313 42.9283 49.5 42 49.5C41.0717 49.5 40.1815 49.1313 39.5251 48.4749C38.8687 47.8185 38.5 46.9283 38.5 46C38.5 45.0717 38.8687 44.1815 39.5251 43.5251C40.1815 42.8687 41.0717 42.5 42 42.5C42.9283 42.5 43.8185 42.8687 44.4749 43.5251C45.1312 44.1815 45.5 45.0717 45.5 46ZM45.5 60C45.5 60.9283 45.1312 61.8185 44.4749 62.4749C43.8185 63.1313 42.9283 63.5 42 63.5C41.0717 63.5 40.1815 63.1313 39.5251 62.4749C38.8687 61.8185 38.5 60.9283 38.5 60C38.5 59.0717 38.8687 58.1815 39.5251 57.5251C40.1815 56.8687 41.0717 56.5 42 56.5C42.9283 56.5 43.8185 56.8687 44.4749 57.5251C45.1312 58.1815 45.5 59.0717 45.5 60ZM24.5 49.5C25.4283 49.5 26.3185 49.1313 26.9749 48.4749C27.6313 47.8185 28 46.9283 28 46C28 45.0717 27.6313 44.1815 26.9749 43.5251C26.3185 42.8687 25.4283 42.5 24.5 42.5C23.5717 42.5 22.6815 42.8687 22.0251 43.5251C21.3687 44.1815 21 45.0717 21 46C21 46.9283 21.3687 47.8185 22.0251 48.4749C22.6815 49.1313 23.5717 49.5 24.5 49.5ZM24.5 63.5C25.4283 63.5 26.3185 63.1313 26.9749 62.4749C27.6313 61.8185 28 60.9283 28 60C28 59.0717 27.6313 58.1815 26.9749 57.5251C26.3185 56.8687 25.4283 56.5 24.5 56.5C23.5717 56.5 22.6815 56.8687 22.0251 57.5251C21.3687 58.1815 21 59.0717 21 60C21 60.9283 21.3687 61.8185 22.0251 62.4749C22.6815 63.1313 23.5717 63.5 24.5 63.5Z" fill="#EA7727"/>
</svg>
