<svg width="84" height="85" viewBox="0 0 84 85" fill="none" xmlns="http://www.w3.org/2000/svg">
<path d="M66.5002 67.007V74C66.5001 74.8573 66.1853 75.6847 65.6157 76.3253C65.046 76.9659 64.2611 77.3752 63.4097 77.4755L63.0002 77.5H21.0002C20.0719 77.5 19.1817 77.1313 18.5253 76.4749C17.8689 75.8185 17.5002 74.9283 17.5002 74V67.021C17.5002 66.0927 17.8689 65.2025 18.5253 64.5461C19.1817 63.8897 20.0719 63.521 21.0002 63.521L63.0002 63.507C63.9285 63.507 64.8187 63.8757 65.4751 64.5321C66.1315 65.1885 66.5002 66.0787 66.5002 67.007ZM42.0002 7.5C45.3327 7.49937 48.5961 8.45027 51.4066 10.2409C54.2172 12.0315 56.4581 14.5874 57.8657 17.608L58.0757 18.0875L58.5517 18.056C62.3958 17.8821 66.1901 18.9801 69.3473 21.18C72.5044 23.3799 74.8485 26.5591 76.0167 30.2255L76.2372 30.971C77.3122 34.9393 76.9558 39.1594 75.2304 42.8911C73.505 46.6229 70.5208 49.628 66.8012 51.3795L66.4967 51.509V56.507C66.4967 57.4353 66.1279 58.3255 65.4716 58.9819C64.8152 59.6382 63.925 60.007 62.9967 60.007L20.9967 60.021C20.1394 60.0209 19.312 59.7062 18.6714 59.1365C18.0308 58.5668 17.6215 57.7819 17.5212 56.9305L17.4967 56.521V51.5055L17.0662 51.313C14.9125 50.2765 12.9939 48.8098 11.4289 47.0033C9.86378 45.1968 8.68533 43.0889 7.9662 40.8095L7.7422 40.029C7.02691 37.3348 6.96558 34.5087 7.56331 31.786C8.16104 29.0633 9.40054 26.5227 11.1786 24.3759C12.9567 22.2291 15.2219 20.538 17.7856 19.4436C20.3493 18.3492 23.1374 17.8831 25.9177 18.084L26.1487 17.587C27.5011 14.6947 29.619 12.2275 32.273 10.4526C34.9271 8.67766 38.0161 7.66266 41.2057 7.5175L42.0002 7.5Z" fill="#EA7727"/>
</svg>
