<svg width="18" height="17" viewBox="0 0 18 17" fill="none" xmlns="http://www.w3.org/2000/svg">
<path d="M9.05078 0.823242C9.13768 0.823242 9.23283 0.845636 9.34082 0.907227C9.41267 0.948253 9.47058 1.00958 9.51465 1.11523L9.51562 1.11719L11.3906 5.56738L11.5078 5.84473L11.8076 5.87109L16.6357 6.29395C16.8006 6.31823 16.8823 6.36477 16.9219 6.39941C16.9855 6.45509 17.0402 6.53224 17.0811 6.64453C17.1152 6.73858 17.1221 6.83025 17.1006 6.93066C17.0846 7.00475 17.0431 7.08567 16.9434 7.1748L13.2744 10.3447L13.0459 10.542L13.1143 10.8369L14.2139 15.5615C14.2421 15.6845 14.2271 15.7625 14.1992 15.8213C14.1488 15.9275 14.0815 16.0113 13.9951 16.0781C13.9257 16.1317 13.8433 16.1652 13.7334 16.1748C13.6528 16.1818 13.5694 16.1656 13.4707 16.1025L13.2012 16.5234L13.4707 16.1016L13.459 16.0947L9.30957 13.5947L9.05078 13.4395L8.79297 13.5947L4.64355 16.0947H4.64258L4.63281 16.1016C4.53357 16.1647 4.44909 16.1816 4.36719 16.1748C4.25837 16.1657 4.17735 16.1318 4.1084 16.0781C4.02104 16.0102 3.95281 15.927 3.90234 15.8213C3.87488 15.7637 3.85897 15.6844 3.8877 15.5596L4.98828 10.8369L5.05664 10.542L4.82812 10.3447L1.15332 7.16992C1.05858 7.08255 1.01868 7.00283 1.00293 6.92969C0.981194 6.82848 0.987847 6.73682 1.02148 6.64355C1.0614 6.53307 1.11597 6.45606 1.18066 6.39941C1.22104 6.3641 1.3023 6.31757 1.46484 6.29395L6.29492 5.87109L6.59473 5.84473L6.71191 5.56738L8.58691 1.11719L8.58789 1.11523C8.63199 1.00956 8.68981 0.948238 8.76172 0.907227C8.86954 0.845742 8.96399 0.8233 9.05078 0.823242Z" stroke="black"/>
</svg>
